<svg id="svg" version="1.1" xmlns="http://www.w3.org/2000/svg" xmlns:xlink="http://www.w3.org/1999/xlink" width="32" height="32" viewBox="0, 0, 400,400"><g id="svgg"><path id="path0" d="M376.323 19.500 C 375.992 19.885,374.315 22.720,372.595 25.800 C 349.893 66.469,325.225 86.931,283.849 99.416 C 274.036 102.377,273.597 102.093,277.625 95.400 C 284.948 83.234,290.739 68.363,293.591 54.400 C 297.360 35.945,296.456 33.901,288.184 42.173 C 267.838 62.519,241.161 75.923,213.400 79.747 C 210.980 80.081,208.280 80.465,207.400 80.602 C 206.520 80.739,189.870 80.996,170.400 81.174 C 133.583 81.510,133.299 81.523,122.400 83.389 C 59.042 94.237,10.349 145.796,0.939 212.000 C 0.039 218.331,-0.105 242.525,0.718 249.200 C 10.294 326.920,68.041 379.192,146.400 381.071 C 209.012 382.572,262.066 362.629,303.847 321.886 C 313.174 312.792,313.362 311.221,304.463 316.741 C 235.400 359.578,141.372 368.637,88.532 337.545 C 1.569 286.374,8.300 159.551,100.157 118.497 C 181.143 82.303,270.344 139.664,274.226 230.434 C 275.962 271.048,244.907 297.529,210.914 284.420 C 203.669 281.626,193.372 273.117,191.904 268.711 C 191.807 268.421,190.323 269.696,188.436 271.690 C 162.931 298.634,119.643 295.957,97.174 266.045 C 70.630 230.707,89.254 180.950,133.000 170.331 C 137.332 169.280,180.608 168.684,185.400 169.610 C 194.075 171.287,201.677 178.239,204.637 187.200 C 205.299 189.204,205.386 191.767,205.606 216.000 C 205.878 245.885,205.846 245.544,209.034 251.612 C 215.840 264.564,234.269 266.552,243.621 255.344 C 255.638 240.941,251.091 204.031,234.093 178.000 C 192.190 113.831,96.214 119.406,62.248 187.981 C 35.053 242.887,63.352 305.878,124.041 325.525 C 148.123 333.321,189.558 332.772,224.264 324.197 C 310.031 303.007,378.641 232.763,395.813 148.563 C 399.018 132.850,399.802 123.913,399.793 103.200 C 399.779 71.584,395.200 49.784,383.576 26.000 C 380.304 19.306,379.926 18.800,378.200 18.800 C 377.480 18.800,376.662 19.105,376.323 19.500 M136.097 194.196 C 108.723 201.271,99.599 235.450,119.758 255.400 C 140.120 275.550,173.635 266.010,181.061 237.948 C 182.069 234.138,182.383 195.644,181.417 194.170 L 180.782 193.200 160.291 193.220 C 140.010 193.239,139.762 193.249,136.097 194.196 " stroke="none" fill="#5c2c94" fill-rule="evenodd"></path><path id="path1" d="" stroke="none" fill="#602c94" fill-rule="evenodd"></path><path id="path2" d="" stroke="none" fill="#602c94" fill-rule="evenodd"></path><path id="path3" d="" stroke="none" fill="#602c94" fill-rule="evenodd"></path><path id="path4" d="" stroke="none" fill="#602c94" fill-rule="evenodd"></path></g></svg>